<?xml version="1.0" encoding="UTF-8" standalone="no"?>
<svg
   width="1em"
   height="1em"
   viewBox="0 0 32 32"
   version="1.1"
   id="svg2"
   sodipodi:docname="hp.svg"
   xml:space="preserve"
   inkscape:version="1.4.4 (dcaf3e7, 2026-05-05)"
   xmlns:inkscape="http://www.inkscape.org/namespaces/inkscape"
   xmlns:sodipodi="http://sodipodi.sourceforge.net/DTD/sodipodi-0.dtd"
   xmlns="http://www.w3.org/2000/svg"
   xmlns:svg="http://www.w3.org/2000/svg"><defs
     id="defs2" /><sodipodi:namedview
     id="namedview2"
     pagecolor="#ffffff"
     bordercolor="#000000"
     borderopacity="0.25"
     inkscape:showpageshadow="2"
     inkscape:pageopacity="0.0"
     inkscape:pagecheckerboard="0"
     inkscape:deskcolor="#d1d1d1"
     inkscape:zoom="9.265625"
     inkscape:cx="42.738617"
     inkscape:cy="14.192243"
     inkscape:window-width="1440"
     inkscape:window-height="837"
     inkscape:window-x="-8"
     inkscape:window-y="-8"
     inkscape:window-maximized="1"
     inkscape:current-layer="svg2" /><path
     d="M0 0h32v32H0z"
     fill="none"
     id="path1" /><path
     fill="currentColor"
     d="M16 32h-.531l3.333-8.932h4.531c.802 0 1.599-.667 1.865-1.333l3.604-9.734c.531-1.599-.401-2.932-2-2.932h-6.271L12.401 31.6C5.198 29.866 0 23.6 0 16.001C0 8.668 4.932 2.532 11.734.532L8.666 9.068l-5.198 14h3.333l4.266-11.87h2.531l-4.266 11.87h3.333l4-11.068c.531-1.599-.266-2.932-2-2.932h-2.667L15.331 0h.667c8.802 0 16 7.198 16 16s-7.198 16-16 16zm9.734-20.932h-2.536l-3.599 9.734h2.536z"
     id="path2"
     style="fill:#0ca1dc;fill-opacity:1" /></svg>
